<svg width="25" height="24" viewBox="0 0 25 24" fill="none" xmlns="http://www.w3.org/2000/svg">
<path fill-rule="evenodd" clip-rule="evenodd" d="M4.347 13.2408L12.5 20.9998L20.653 13.2408C21.844 12.1078 22.5 10.5988 22.5 8.99183C22.5 7.38483 21.844 5.87583 20.653 4.74183C18.433 2.62883 14.948 2.43883 12.5 4.16883C10.052 2.43883 6.567 2.62883 4.347 4.74183C3.156 5.87583 2.5 7.38483 2.5 8.99183C2.5 10.5988 3.156 12.1078 4.347 13.2408ZM5.741 6.14483C6.577 5.34983 7.674 4.95283 8.772 4.95283C9.87 4.95283 10.967 5.34983 11.803 6.14483L12.5 6.80883L13.197 6.14483C14.868 4.55483 17.588 4.55483 19.259 6.14483C20.059 6.90683 20.5 7.91883 20.5 8.99183C20.5 10.0648 20.059 11.0758 19.259 11.8378L12.5 18.2698L5.741 11.8378C4.941 11.0758 4.5 10.0648 4.5 8.99183C4.5 7.91783 4.941 6.90683 5.741 6.14483Z" fill="#F4F4F4"/>
</svg>
