<svg width="25" height="24" viewBox="0 0 25 24" fill="none" xmlns="http://www.w3.org/2000/svg">
<path d="M12.5 11C13.4889 11 14.4556 10.7068 15.2779 10.1573C16.1001 9.60794 16.741 8.82705 17.1194 7.91342C17.4978 6.99979 17.5969 5.99446 17.4039 5.02455C17.211 4.05465 16.7348 3.16373 16.0355 2.46447C15.3363 1.76521 14.4454 1.289 13.4755 1.09608C12.5055 0.90315 11.5002 1.00217 10.5866 1.3806C9.67295 1.75904 8.89206 2.39991 8.34265 3.22215C7.79324 4.0444 7.5 5.0111 7.5 6C7.50159 7.3256 8.02888 8.59644 8.96622 9.53378C9.90356 10.4711 11.1744 10.9984 12.5 11ZM12.5 3C13.0933 3 13.6734 3.17595 14.1667 3.50559C14.6601 3.83524 15.0446 4.30377 15.2716 4.85195C15.4987 5.40013 15.5581 6.00333 15.4424 6.58527C15.3266 7.16722 15.0409 7.70177 14.6213 8.12132C14.2018 8.54088 13.6672 8.8266 13.0853 8.94236C12.5033 9.05811 11.9001 8.9987 11.3519 8.77164C10.8038 8.54458 10.3352 8.16006 10.0056 7.66671C9.67595 7.17337 9.5 6.59335 9.5 6C9.5 5.20435 9.81607 4.44129 10.3787 3.87868C10.9413 3.31607 11.7044 3 12.5 3ZM3.5 22V18C3.50159 16.6744 4.02888 15.4036 4.96622 14.4662C5.90356 13.5289 7.17441 13.0016 8.5 13H16.5C17.8256 13.0016 19.0964 13.5289 20.0338 14.4662C20.9711 15.4036 21.4984 16.6744 21.5 18V22C21.5 22.2652 21.3946 22.5196 21.2071 22.7071C21.0196 22.8946 20.7652 23 20.5 23C20.2348 23 19.9804 22.8946 19.7929 22.7071C19.6054 22.5196 19.5 22.2652 19.5 22V18C19.5 17.2044 19.1839 16.4413 18.6213 15.8787C18.0587 15.3161 17.2956 15 16.5 15H8.5C7.70435 15 6.94129 15.3161 6.37868 15.8787C5.81607 16.4413 5.5 17.2044 5.5 18V22C5.5 22.2652 5.39464 22.5196 5.20711 22.7071C5.01957 22.8946 4.76522 23 4.5 23C4.23478 23 3.98043 22.8946 3.79289 22.7071C3.60536 22.5196 3.5 22.2652 3.5 22Z" fill="#F4F4F4"/>
</svg>
