<svg width="21" height="20" viewBox="0 0 21 20" fill="none" xmlns="http://www.w3.org/2000/svg">
<path fill-rule="evenodd" clip-rule="evenodd" d="M3.52054 18.1501L7.45894 14.9993H16.3333C17.714 14.9993 18.8333 13.8801 18.8333 12.4993V4.16602C18.8333 2.7853 17.714 1.66602 16.3333 1.66602H4.66663C3.28591 1.66602 2.16663 2.7853 2.16663 4.16602V17.4993C2.16663 18.1981 2.9749 18.5866 3.52054 18.1501ZM6.64605 13.5153L3.83329 15.7655V4.16602C3.83329 3.70578 4.20639 3.33268 4.66663 3.33268H16.3333C16.7935 3.33268 17.1666 3.70578 17.1666 4.16602V12.4993C17.1666 12.9596 16.7935 13.3327 16.3333 13.3327H7.16663C6.9774 13.3327 6.79381 13.3971 6.64605 13.5153Z" fill="#727272"/>
</svg>
