<svg width="21" height="20" viewBox="0 0 21 20" fill="none" xmlns="http://www.w3.org/2000/svg">
<path d="M2.99996 18.3327H18C18.221 18.3327 18.4329 18.2449 18.5892 18.0886C18.7455 17.9323 18.8333 17.7204 18.8333 17.4993V2.49935C18.8333 2.27834 18.7455 2.06637 18.5892 1.91009C18.4329 1.75381 18.221 1.66602 18 1.66602H2.99996C2.77895 1.66602 2.56698 1.75381 2.4107 1.91009C2.25442 2.06637 2.16663 2.27834 2.16663 2.49935V17.4993C2.16663 17.7204 2.25442 17.9323 2.4107 18.0886C2.56698 18.2449 2.77895 18.3327 2.99996 18.3327ZM5.01163 16.666L8.83329 12.8443L9.91079 13.9219C10.0671 14.0781 10.279 14.1658 10.5 14.1658C10.7209 14.1658 10.9329 14.0781 11.0891 13.9219L14.6666 10.3443L17.1666 12.8443V16.666H5.01163ZM17.1666 3.33268V10.4877L15.2558 8.57685C15.0995 8.42062 14.8876 8.33286 14.6666 8.33286C14.4457 8.33286 14.2337 8.42062 14.0775 8.57685L10.5 12.1544L9.42246 11.0768C9.26619 10.9206 9.05426 10.8329 8.83329 10.8329C8.61232 10.8329 8.4004 10.9206 8.24413 11.0768L3.83329 15.4877V3.33268H17.1666ZM5.49996 7.08268C5.49996 6.67064 5.62214 6.26785 5.85106 5.92524C6.07998 5.58264 6.40536 5.31562 6.78604 5.15793C7.16672 5.00025 7.5856 4.95899 7.98973 5.03938C8.39386 5.11977 8.76507 5.31818 9.05643 5.60954C9.34779 5.9009 9.54621 6.27212 9.6266 6.67624C9.70698 7.08037 9.66572 7.49926 9.50804 7.87994C9.35036 8.26062 9.08333 8.58599 8.74073 8.81491C8.39813 9.04383 7.99534 9.16602 7.58329 9.16602C7.03076 9.16602 6.50085 8.94652 6.11015 8.55582C5.71945 8.16512 5.49996 7.63522 5.49996 7.08268Z" fill="#727272"/>
</svg>
