<svg width="24" height="24" viewBox="0 0 24 24" fill="none" xmlns="http://www.w3.org/2000/svg">
<path fill-rule="evenodd" clip-rule="evenodd" d="M16.1233 2.06282C14.2833 1.97699 9.72589 1.98116 7.88425 2.06282C6.26595 2.13865 4.83847 2.52948 3.68766 3.68029C1.9666 5.40135 1.98247 7.65758 2.00484 10.8365C2.00747 11.21 2.01019 11.5963 2.01019 11.996C2.01019 12.37 2.00819 12.7315 2.00625 13.0811C1.98804 16.3669 1.97566 18.5997 3.68766 20.3117C5.41187 22.0351 7.69297 22.0182 10.836 21.9948C11.2126 21.992 11.6015 21.9891 12.0033 21.9891H12.0576C15.8691 21.9892 17.193 21.9892 18.5491 21.4641C20.4015 20.745 21.7998 19.0892 21.9365 16.1151C22.0232 14.2743 22.0182 9.71769 21.9365 7.87605C21.7715 4.36528 19.8874 2.23615 16.1233 2.06282ZM19.0357 19.0392C17.8746 20.2003 16.2993 20.1967 12.8967 20.1889L12.8949 20.1889C12.6034 20.1882 12.2984 20.1875 11.9792 20.1875L11.4068 20.1878C7.6562 20.1905 6.08436 20.1916 4.92264 19.0267C3.71404 17.8238 3.73403 15.9937 3.76304 13.3376C3.76773 12.9079 3.77266 12.4565 3.77266 11.9826C3.77266 11.5808 3.76906 11.1888 3.76556 10.8078L3.76556 10.8078C3.72898 6.82324 3.70345 4.04213 7.92092 3.82612L7.96874 3.82443C8.9926 3.78825 9.33562 3.77612 11.9675 3.77612L12.005 3.80112C12.3855 3.80112 12.759 3.79771 13.124 3.79437C17.0188 3.75877 19.9478 3.732 20.139 7.95605C20.1865 9.0102 20.1974 9.32686 20.1974 11.9951C20.1973 12.2351 20.1975 12.4668 20.1978 12.6905C20.2012 16.3078 20.2027 17.8667 19.0357 19.0392ZM12.0033 6.8644C9.16756 6.8644 6.87177 9.1627 6.87177 11.996C6.87177 14.8318 9.17006 17.1276 12.0033 17.1276C14.8391 17.1276 17.1349 14.8293 17.1349 11.996C17.1349 9.1602 14.8366 6.8644 12.0033 6.8644ZM12.0033 15.3268C10.1625 15.3268 8.67257 13.8359 8.67257 11.996C8.67257 10.156 10.1634 8.66521 12.0033 8.66521C13.8433 8.66521 15.3341 10.156 15.3341 11.996C15.335 13.8359 13.8441 15.3268 12.0033 15.3268ZM18.5374 6.66191C18.5374 7.32418 18.0005 7.86105 17.3383 7.86105C16.676 7.86105 16.1391 7.32418 16.1391 6.66191C16.1391 5.99964 16.676 5.46276 17.3383 5.46276C18.0005 5.46276 18.5374 5.99964 18.5374 6.66191Z" fill="#1A1A1A"/>
</svg>
