<svg width="150" height="22" viewBox="0 0 150 22" fill="none" xmlns="http://www.w3.org/2000/svg">
<path d="M36.6036 17.3654C37.8753 17.3654 38.9312 17.0544 39.7714 16.4325C40.6116 15.8105 41.0317 14.9535 41.0317 13.8613C41.0317 13.0876 40.8235 12.4467 40.4072 11.9385C39.9909 11.4303 39.48 11.0701 38.8744 10.8577C38.2689 10.6453 37.6671 10.4595 37.0691 10.3002C36.4711 10.1409 35.964 9.95131 35.5477 9.73135C35.1314 9.5114 34.9232 9.2118 34.9232 8.83256C34.9232 8.43815 35.0822 8.13855 35.4001 7.93376C35.718 7.72898 36.1116 7.62658 36.5809 7.62658C37.6103 7.62658 38.3218 8.05891 38.7155 8.92358L40.7819 7.76311C40.3883 7.0198 39.8244 6.43957 39.0901 6.02241C38.3559 5.60524 37.5195 5.39666 36.5809 5.39666C35.4001 5.39666 34.4123 5.71522 33.6175 6.35234C32.8227 6.98946 32.4254 7.83137 32.4254 8.87807C32.4254 9.63654 32.6335 10.2623 33.0498 10.7553C33.4661 11.2483 33.9771 11.601 34.5826 11.8134C35.1882 12.0257 35.7899 12.2116 36.3879 12.3708C36.9859 12.5301 37.493 12.7235 37.9093 12.9511C38.3256 13.1786 38.5338 13.4744 38.5338 13.8385C38.5338 14.688 37.8904 15.1127 36.6036 15.1127C35.3168 15.1127 34.4766 14.5666 34.083 13.4744L31.9712 14.7032C32.3345 15.5375 32.9174 16.1898 33.7197 16.66C34.5221 17.1303 35.4834 17.3654 36.6036 17.3654ZM45.6414 21.6205V15.4541C46.5648 16.7283 47.8895 17.3654 49.6153 17.3654C51.1745 17.3654 52.5068 16.789 53.6119 15.6361C54.717 14.4832 55.2696 13.0649 55.2696 11.381C55.2696 9.71239 54.717 8.29783 53.6119 7.13737C52.5068 5.9769 51.1745 5.39666 49.6153 5.39666C47.8895 5.39666 46.5648 6.04137 45.6414 7.33078V5.69247H43.1889V21.6205H45.6414ZM49.2292 15.0217C48.1998 15.0217 47.3445 14.6804 46.6632 13.9978C45.982 13.3 45.6414 12.4277 45.6414 11.381C45.6414 10.3343 45.982 9.46589 46.6632 8.77567C47.3445 8.08546 48.1998 7.74035 49.2292 7.74035C50.2587 7.74035 51.114 8.08546 51.7952 8.77567C52.4765 9.46589 52.8171 10.3343 52.8171 11.381C52.8171 12.4277 52.4765 13.2962 51.7952 13.9864C51.114 14.6766 50.2587 15.0217 49.2292 15.0217ZM62.854 17.3654C64.5344 17.3654 65.9536 16.789 67.1117 15.6361C68.2698 14.4832 68.8489 13.0649 68.8489 11.381C68.8489 9.69722 68.2698 8.27887 67.1117 7.12599C65.9536 5.9731 64.5344 5.39666 62.854 5.39666C61.1888 5.39666 59.7733 5.9731 58.6076 7.12599C57.4419 8.27887 56.8591 9.69722 56.8591 11.381C56.8591 13.0649 57.4419 14.4832 58.6076 15.6361C59.7733 16.789 61.1888 17.3654 62.854 17.3654ZM62.854 14.9762C61.8549 14.9762 61.0147 14.6349 60.3334 13.9523C59.6522 13.2696 59.3116 12.4126 59.3116 11.381C59.3116 10.3495 59.6522 9.49243 60.3334 8.8098C61.0147 8.12718 61.8549 7.78586 62.854 7.78586C63.8532 7.78586 64.6933 8.12718 65.3746 8.8098C66.0558 9.49243 66.3964 10.3495 66.3964 11.381C66.3964 12.4126 66.0558 13.2696 65.3746 13.9523C64.6933 14.6349 63.8532 14.9762 62.854 14.9762ZM75.2071 17.3654C76.8118 17.3654 77.9851 16.7814 78.7269 15.6133V17.0696H81.1793V5.69247H78.7269V11.7906C78.7269 12.898 78.4619 13.7209 77.9321 14.2595C77.4022 14.798 76.7059 15.0672 75.843 15.0672C75.0557 15.0672 74.4351 14.8397 73.9809 14.3846C73.5267 13.9295 73.2997 13.2772 73.2997 12.4277V5.69247H70.8472V12.678C70.8472 14.1343 71.2484 15.2796 72.0507 16.1139C72.8531 16.9483 73.9052 17.3654 75.2071 17.3654ZM87.8555 17.3654C89.1271 17.3654 90.183 17.0544 91.0232 16.4325C91.8634 15.8105 92.2835 14.9535 92.2835 13.8613C92.2835 13.0876 92.0754 12.4467 91.659 11.9385C91.2427 11.4303 90.7318 11.0701 90.1263 10.8577C89.5207 10.6453 88.9189 10.4595 88.321 10.3002C87.723 10.1409 87.2159 9.95131 86.7995 9.73135C86.3832 9.5114 86.1751 9.2118 86.1751 8.83256C86.1751 8.43815 86.334 8.13855 86.6519 7.93376C86.9698 7.72898 87.3635 7.62658 87.8328 7.62658C88.8622 7.62658 89.5737 8.05891 89.9673 8.92358L92.0337 7.76311C91.6401 7.0198 91.0762 6.43957 90.342 6.02241C89.6078 5.60524 88.7713 5.39666 87.8328 5.39666C86.6519 5.39666 85.6641 5.71522 84.8694 6.35234C84.0746 6.98946 83.6772 7.83137 83.6772 8.87807C83.6772 9.63654 83.8854 10.2623 84.3017 10.7553C84.718 11.2483 85.2289 11.601 85.8344 11.8134C86.44 12.0257 87.0418 12.2116 87.6397 12.3708C88.2377 12.5301 88.7449 12.7235 89.1612 12.9511C89.5775 13.1786 89.7856 13.4744 89.7856 13.8385C89.7856 14.688 89.1422 15.1127 87.8555 15.1127C86.5687 15.1127 85.7285 14.5666 85.3349 13.4744L83.223 14.7032C83.5864 15.5375 84.1692 16.1898 84.9715 16.66C85.7739 17.1303 86.7352 17.3654 87.8555 17.3654ZM99.6863 17.3654C101.881 17.3654 103.539 16.5387 104.659 14.8852L102.638 13.702C101.987 14.6425 101.011 15.1127 99.709 15.1127C98.7704 15.1127 97.9756 14.8814 97.3247 14.4187C96.6737 13.9561 96.2574 13.2924 96.0757 12.4277H105.114C105.174 12.003 105.204 11.6617 105.204 11.4038C105.204 9.73515 104.671 8.3168 103.603 7.14874C102.536 5.98069 101.17 5.39666 99.5046 5.39666C97.7486 5.39666 96.3104 5.96931 95.1901 7.11461C94.0699 8.25991 93.5097 9.68205 93.5097 11.381C93.5097 13.1104 94.0774 14.5401 95.2128 15.6702C96.3482 16.8003 97.8394 17.3654 99.6863 17.3654ZM102.729 10.4254H96.053C96.2196 9.5607 96.6056 8.87807 97.2111 8.37747C97.8167 7.87688 98.5736 7.62658 99.4819 7.62658C100.284 7.62658 100.984 7.86171 101.582 8.33196C102.18 8.80222 102.563 9.50002 102.729 10.4254ZM112.653 17.3654C113.758 17.3654 114.764 17.0999 115.673 16.569C116.581 16.0381 117.277 15.3175 117.762 14.4074L115.65 13.2014C115.377 13.7323 114.973 14.1571 114.435 14.4756C113.898 14.7942 113.296 14.9535 112.63 14.9535C111.631 14.9535 110.794 14.6121 110.121 13.9295C109.447 13.2469 109.11 12.3974 109.11 11.381C109.11 10.3647 109.447 9.51519 110.121 8.83256C110.794 8.14993 111.631 7.80862 112.63 7.80862C113.311 7.80862 113.913 7.9641 114.435 8.27508C114.957 8.58605 115.347 9.01459 115.605 9.5607L117.716 8.33196C117.262 7.43696 116.581 6.724 115.673 6.19306C114.764 5.66213 113.758 5.39666 112.653 5.39666C110.942 5.39666 109.515 5.96931 108.372 7.11461C107.229 8.25991 106.658 9.68205 106.658 11.381C106.658 13.0649 107.229 14.4832 108.372 15.6361C109.515 16.789 110.942 17.3654 112.653 17.3654ZM121.986 17.0696V0.458984H119.533V17.0696H121.986ZM128.957 17.3654C130.562 17.3654 131.735 16.7814 132.477 15.6133V17.0696H134.929V5.69247H132.477V11.7906C132.477 12.898 132.212 13.7209 131.682 14.2595C131.152 14.798 130.456 15.0672 129.593 15.0672C128.805 15.0672 128.185 14.8397 127.731 14.3846C127.276 13.9295 127.049 13.2772 127.049 12.4277V5.69247H124.597V12.678C124.597 14.1343 124.998 15.2796 125.8 16.1139C126.603 16.9483 127.655 17.3654 128.957 17.3654ZM144.217 17.3654C145.776 17.3654 147.108 16.7852 148.213 15.6247C149.318 14.4642 149.871 13.0497 149.871 11.381C149.871 9.69722 149.318 8.27887 148.213 7.12599C147.108 5.9731 145.776 5.39666 144.217 5.39666C142.491 5.39666 141.166 6.03378 140.243 7.30802V1.14161H137.79V17.0696H140.243V15.4313C141.166 16.7207 142.491 17.3654 144.217 17.3654ZM143.831 15.0217C142.801 15.0217 141.946 14.6804 141.265 13.9978C140.583 13.3 140.243 12.4277 140.243 11.381C140.243 10.3343 140.583 9.46589 141.265 8.77567C141.946 8.08546 142.801 7.74035 143.831 7.74035C144.86 7.74035 145.715 8.08546 146.397 8.77567C147.078 9.46589 147.418 10.3343 147.418 11.381C147.418 12.4277 147.078 13.2962 146.397 13.9864C145.715 14.6766 144.86 15.0217 143.831 15.0217Z" fill="#1A1A1A"/>
<path d="M24.3224 11.2363C24.3172 11.2363 24.3117 11.2363 24.3064 11.2363C21.608 11.2237 17.654 8.12312 13.7802 3.6353C13.7741 3.62822 13.768 3.62101 13.7619 3.61392C13.76 3.61185 13.7579 3.60941 13.7561 3.60733C13.7507 3.6011 13.7456 3.59524 13.7402 3.58901C13.7371 3.58522 13.7334 3.58095 13.7301 3.57716C13.7269 3.57349 13.724 3.56995 13.7207 3.56629C13.7164 3.56128 13.7128 3.557 13.7085 3.552C13.6909 3.5316 13.6729 3.51059 13.6553 3.49007C13.6498 3.48409 13.6445 3.47822 13.639 3.47212C13.6445 3.47822 13.6498 3.48409 13.6553 3.49007C15.9029 1.01861 18.2518 -0.000930786 20.3556 -0.000930786C24.5276 -0.000930786 27.7342 4.00967 27.2646 8.66312C27.2633 8.66776 27.2618 8.67228 27.2604 8.67716C26.7119 10.4551 25.6764 11.2363 24.3228 11.2363H24.3224Z" fill="url(#paint0_linear)"/>
<path d="M6.99845 0.804197C8.94787 0.804197 11.0622 1.74263 12.9314 3.93231C16.9823 8.67773 21.144 11.9931 23.9921 11.9933C25.2219 11.9935 26.2065 11.3758 26.8321 9.98822C26.9948 9.62738 27.1332 9.21435 27.2452 8.74677L27.2647 8.66369C27.1612 9.69202 26.8779 10.752 26.386 11.8067C26.3859 11.8069 26.3859 11.8069 26.3858 11.8072L26.3774 11.8251C26.3774 11.8254 26.3771 11.8256 26.3771 11.8258C26.3758 11.8287 26.3745 11.8314 26.3731 11.8342C26.373 11.8346 26.3728 11.8348 26.3727 11.8352C26.3715 11.8376 26.3703 11.8403 26.3692 11.8427C26.3688 11.8435 26.3686 11.844 26.3682 11.8447L26.3649 11.8517C26.3645 11.8524 26.3642 11.8532 26.3638 11.854C26.3628 11.856 26.362 11.858 26.361 11.8601C26.3604 11.8612 26.3599 11.8624 26.3593 11.8635C26.3585 11.8652 26.3577 11.867 26.3568 11.8688C26.3562 11.8701 26.3555 11.8714 26.3549 11.8728C26.3543 11.8742 26.3537 11.8756 26.3529 11.8769L26.3504 11.8824C26.3499 11.8834 26.3494 11.8845 26.3489 11.8855C26.3479 11.8876 26.3469 11.8895 26.346 11.8915C26.3455 11.8927 26.3449 11.8939 26.3443 11.8951C26.3434 11.8971 26.3424 11.899 26.3414 11.901L26.3403 11.9033L26.3371 11.9103L26.3363 11.9116C26.3336 11.9175 26.3308 11.9231 26.3281 11.929C26.328 11.929 26.3279 11.9292 26.3279 11.9293C26.0987 12.4047 25.8271 12.8788 25.5099 13.3482L25.5011 13.3614C24.146 15.3618 20.9273 18.5267 16.9925 21.0308C15.9773 21.6769 14.8163 22 13.6553 22C12.4944 22 11.3335 21.6769 10.318 21.0308C6.42256 18.5518 3.22903 15.4251 1.85073 13.4217L1.80952 13.3614C-1.65241 6.57612 2.16508 0.804197 6.99845 0.804197ZM15.1759 5.18905L15.2921 5.31242C18.5446 8.75508 21.7313 11.0629 24.0602 11.2278L24.143 11.2329C21.8071 11.1182 18.5835 8.79656 15.2921 5.31259L15.1759 5.18905ZM12.4519 2.31079L12.3845 2.25283C10.5821 0.712571 8.75626 0.0337054 7.08083 0.00122726L6.95546 1.11662e-08C8.68611 -0.000101369 10.5824 0.690124 12.4519 2.31079Z" fill="#1A1A1A"/>
<mask id="mask0" style="mask-type:alpha" maskUnits="userSpaceOnUse" x="0" y="0" width="28" height="14">
<path d="M23.9922 11.9933C21.144 11.9931 16.9823 8.67773 12.9314 3.93231C11.0622 1.74263 8.94792 0.804197 6.9985 0.804197C2.16513 0.804197 -1.65237 6.57612 1.80957 13.3614C0.547328 11.498 0 9.56157 0 7.75994C0.000366433 3.50285 3.05556 0 6.95501 0C9.05846 0 11.4083 1.02015 13.6554 3.491C17.5767 8.06616 21.5948 11.2373 24.3224 11.2373C25.6798 11.2373 26.7176 10.452 27.2648 8.66369C27.1495 9.16558 27.0044 9.60615 26.8321 9.98822C26.2065 11.3758 25.2219 11.9935 23.9922 11.9933Z" fill="white"/>
</mask>
<g mask="url(#mask0)">
<path d="M23.9922 11.9933C21.144 11.9931 16.9823 8.67773 12.9314 3.93231C11.0622 1.74263 8.94792 0.804197 6.9985 0.804197C2.16513 0.804197 -1.65237 6.57612 1.80957 13.3614C0.547328 11.498 0 9.56157 0 7.75994C0.000366433 3.50285 3.05556 0 6.95501 0C9.05846 0 11.4083 1.02015 13.6554 3.491C17.5767 8.06616 21.5948 11.2373 24.3224 11.2373C25.6798 11.2373 26.7176 10.452 27.2648 8.66369C27.1495 9.16558 27.0044 9.60615 26.8321 9.98822C26.2065 11.3758 25.2219 11.9935 23.9922 11.9933Z" fill="url(#paint1_linear)"/>
</g>
<defs>
<linearGradient id="paint0_linear" x1="19.1802" y1="1.37666" x2="14.0191" y2="8.20431" gradientUnits="userSpaceOnUse">
<stop stop-color="#1A1A1A"/>
<stop offset="0.0547936" stop-color="#1A1A1A"/>
<stop offset="1" stop-color="#1A1A1A" stop-opacity="0.5"/>
</linearGradient>
<linearGradient id="paint1_linear" x1="0.492342" y1="7.57903" x2="27.2616" y2="7.24605" gradientUnits="userSpaceOnUse">
<stop stop-color="#1A1A1A" stop-opacity="0.79"/>
<stop offset="1" stop-color="#1A1A1A" stop-opacity="0.5"/>
</linearGradient>
</defs>
</svg>
