<svg width="21" height="20" viewBox="0 0 21 20" fill="none" xmlns="http://www.w3.org/2000/svg">
<path fill-rule="evenodd" clip-rule="evenodd" d="M3.83329 6.99916V14.4649C3.83329 15.0238 4.20639 15.4768 4.66663 15.4768H16.3333C16.7935 15.4768 17.1666 15.0238 17.1666 14.4649V6.99908L10.9777 12.2583C10.6908 12.5021 10.309 12.5021 10.0221 12.2583L3.83329 6.99916ZM16.1912 5.35779H4.8086L10.4999 10.1941L16.1912 5.35779ZM4.66663 3.33398C3.28591 3.33398 2.16663 4.69312 2.16663 6.3697V14.4649C2.16663 16.1415 3.28591 17.5007 4.66663 17.5007H16.3333C17.714 17.5007 18.8333 16.1415 18.8333 14.4649V6.3697C18.8333 4.69312 17.714 3.33398 16.3333 3.33398H4.66663Z" fill="#727272"/>
</svg>
