<svg width="30" height="30" viewBox="0 0 30 30" fill="none" xmlns="http://www.w3.org/2000/svg">
<path fill-rule="evenodd" clip-rule="evenodd" d="M5.07475 23.3233C4.78095 24.1223 5.3697 25 6.25003 25H12.5C12.5 26.3807 13.6193 27.5 15 27.5C16.3807 27.5 17.5 26.3807 17.5 25H23.75L23.8939 24.992C24.74 24.8975 25.2617 23.9784 24.8681 23.191L23.4238 20.3024L23.2503 19.9343C22.7562 18.8193 22.5 17.6119 22.5 16.3893V12.5L22.4938 12.1918C22.3492 8.61465 19.6992 5.68284 16.251 5.10387L16.25 3.75C16.25 3.05964 15.6904 2.5 15 2.5C14.3097 2.5 13.75 3.05964 13.75 3.75L13.7503 5.10366C10.203 5.69866 7.50003 8.78367 7.50003 12.5V16.3893L7.49056 16.7962C7.43386 18.0144 7.12301 19.209 6.57626 20.3024L5.13199 23.191L5.07475 23.3233ZM10.0062 12.2505C10.1362 9.60496 12.3223 7.5 15 7.5C17.7615 7.5 20 9.73858 20 12.5V16.3893L20.0085 16.8254C20.0704 18.4218 20.4718 19.9885 21.1877 21.4205L21.7275 22.5H8.27258L8.81235 21.4205L8.99979 21.0267C9.65836 19.5711 10 17.9903 10 16.3893V12.5L10.0062 12.2505Z" fill="#1A1A1A"/>
</svg>
