<svg width="30" height="30" viewBox="0 0 30 30" fill="none" xmlns="http://www.w3.org/2000/svg">
<path fill-rule="evenodd" clip-rule="evenodd" d="M25 13.75C25 7.5368 19.9632 2.5 13.75 2.5C7.5368 2.5 2.5 7.5368 2.5 13.75C2.5 19.9632 7.5368 25 13.75 25C16.406 25 18.847 24.0796 20.7715 22.5404L25.3661 27.1339L25.4839 27.2379C25.9742 27.6192 26.6833 27.5845 27.1339 27.1339C27.622 26.6457 27.622 25.8543 27.1339 25.3661L22.5404 20.7715C24.0796 18.847 25 16.406 25 13.75ZM5 13.75C5 8.91751 8.91751 5 13.75 5C18.5825 5 22.5 8.91751 22.5 13.75C22.5 18.5825 18.5825 22.5 13.75 22.5C8.91751 22.5 5 18.5825 5 13.75Z" fill="#1A1A1A"/>
</svg>
