<svg width="24" height="24" viewBox="0 0 24 24" fill="none" xmlns="http://www.w3.org/2000/svg">
<path d="M19.945 8.0525C20.7583 7.475 21.4425 6.75417 22 5.92417V5.92333C21.2558 6.24917 20.4642 6.46583 19.6375 6.57083C20.4875 6.06333 21.1367 5.26583 21.4417 4.305C20.6492 4.7775 19.7742 5.11083 18.8417 5.2975C18.0892 4.49583 17.0167 4 15.8467 4C13.5767 4 11.7492 5.8425 11.7492 8.10083C11.7492 8.42583 11.7767 8.73833 11.8442 9.03583C8.43583 8.86917 5.41917 7.23583 3.3925 4.74667C3.03917 5.36083 2.83083 6.06333 2.83083 6.81917C2.83083 8.23917 3.56167 9.4975 4.6525 10.2267C3.99333 10.2142 3.3475 10.0225 2.8 9.72167V9.76667C2.8 11.7592 4.22083 13.4142 6.085 13.7958C5.75083 13.8875 5.3875 13.9308 5.01 13.9308C4.7475 13.9308 4.4825 13.9158 4.23417 13.8608C4.765 15.4842 6.27333 16.6783 8.065 16.7175C6.67 17.8083 4.89833 18.4658 2.98083 18.4658C2.645 18.4658 2.3225 18.4508 2 18.41C3.81667 19.5808 5.96833 20.25 8.29 20.25C15.5258 20.25 20.2417 14.2133 19.945 8.0525Z" fill="#1A1A1A"/>
</svg>
