<svg width="21" height="20" viewBox="0 0 21 20" fill="none" xmlns="http://www.w3.org/2000/svg">
<path fill-rule="evenodd" clip-rule="evenodd" d="M10.5 1.66602C13.2614 1.66602 15.5 3.90459 15.5 6.66602C15.5 9.42744 13.2614 11.666 10.5 11.666C7.73856 11.666 5.49998 9.42744 5.49998 6.66602C5.49998 3.90459 7.73856 1.66602 10.5 1.66602ZM6.15255 13.3365L6.33329 13.3327H14.6666C16.9678 13.3327 18.8333 15.1982 18.8333 17.4994C18.8333 17.9596 18.4602 18.3327 18 18.3327C17.5726 18.3327 17.2204 18.011 17.1722 17.5965L17.1624 17.3525C17.0892 16.0887 16.0773 15.0768 14.8135 15.0036L14.6666 14.9994H6.33329C4.95258 14.9994 3.83329 16.1186 3.83329 17.4994C3.83329 17.9596 3.4602 18.3327 2.99996 18.3327C2.53972 18.3327 2.16663 17.9596 2.16663 17.4994C2.16663 15.2587 3.93521 13.4312 6.15255 13.3365ZM7.16663 6.66602C7.16663 4.82507 8.65901 3.33268 10.5 3.33268C12.3409 3.33268 13.8333 4.82507 13.8333 6.66602C13.8333 8.50697 12.3409 9.99935 10.5 9.99935C8.65901 9.99935 7.16663 8.50697 7.16663 6.66602Z" fill="#727272"/>
</svg>
